<svg xmlns="http://www.w3.org/2000/svg" viewBox="0 0 212.18 69.52"><defs><style>.cls-1,.cls-12,.cls-13,.cls-14{fill:none;}.cls-1{stroke:#9b9a9a;stroke-width:0.25px;}.cls-2{font-size:8px;fill:#375f78;font-family:Roboto-Regular, Roboto;}.cls-3{letter-spacing:-0.01em;}.cls-4{letter-spacing:-0.05em;}.cls-5{letter-spacing:-0.01em;}.cls-6{letter-spacing:0em;}.cls-7{letter-spacing:-0.01em;}.cls-8{letter-spacing:-0.01em;}.cls-9{letter-spacing:-0.01em;}.cls-10{letter-spacing:-0.02em;}.cls-11{letter-spacing:0.01em;}.cls-12,.cls-13,.cls-14{stroke:#375f78;stroke-miterlimit:10;}.cls-12,.cls-14{stroke-linecap:square;}.cls-12,.cls-13{stroke-width:1.52px;}.cls-14{stroke-width:1.43px;}</style></defs><g id="Capa_2" data-name="Capa 2"><g id="Layer_1" data-name="Layer 1"><line class="cls-1" x1="64.4" y1="69.52" x2="64.58" y2="0.39"/><text class="cls-2" transform="translate(0 54.53) scale(0.96 1)">FREE SHIPPING</text><text class="cls-2" transform="translate(80.35 54.53) scale(0.96 1)">60-<tspan class="cls-3" x="11.19" y="0">D</tspan><tspan class="cls-4" x="16.36" y="0">A</tspan><tspan x="21.21" y="0">Y MONEY</tspan><tspan x="-6.1" y="11">B</tspan><tspan class="cls-5" x="-1.12" y="11">A</tspan><tspan class="cls-6" x="4.06" y="11">CK G</tspan><tspan class="cls-7" x="21.71" y="11">U</tspan><tspan x="26.81" y="11">ARA</tspan><tspan class="cls-8" x="42.17" y="11">N</tspan><tspan x="47.76" y="11">TEE</tspan></text><text class="cls-2" transform="translate(156.44 54.53) scale(0.96 1)">2 YEAR LIM<tspan class="cls-9" x="41.41" y="0">I</tspan><tspan x="43.48" y="0">TED</tspan><tspan class="cls-10" x="7.8" y="11">W</tspan><tspan x="14.73" y="11">ARRA</tspan><tspan class="cls-8" x="35.02" y="11">N</tspan><tspan class="cls-11" x="40.61" y="11">T</tspan><tspan x="45.44" y="11">Y</tspan></text><line class="cls-1" x1="148.95" y1="69.52" x2="149.13" y2="0.39"/><path class="cls-12" d="M24.35,31.8h7.78V17.09a6.47,6.47,0,0,0-6.47-6.47H14"/><polyline class="cls-12" points="17.55 31.8 13.81 31.8 13.81 25.26"/><path class="cls-12" d="M24.35,31.8A3.4,3.4,0,1,1,21,28.4,3.4,3.4,0,0,1,24.35,31.8Z"/><path class="cls-12" d="M41.44,31.8a3.4,3.4,0,1,1-3.39-3.4A3.4,3.4,0,0,1,41.44,31.8Z"/><path class="cls-12" d="M41.44,31.8h1a1.36,1.36,0,0,0,1.36-1.37V24.32a1.46,1.46,0,0,0-.23-.79l-3.07-4.61a4.14,4.14,0,0,0-3.43-1.83h-4c-1,0-1,.79-1,1.76v13h2.52"/><polyline class="cls-13" points="36.18 20.58 36.18 23.89 43.47 23.89"/><line class="cls-13" x1="29.08" y1="27.75" x2="27.56" y2="27.75"/><path class="cls-12" d="M14.72,10.62H9.25a1.92,1.92,0,0,0-1.93,1.93h0a1.92,1.92,0,0,0,1.93,1.93h0a1.92,1.92,0,0,1-1.93-1.93h0a1.92,1.92,0,0,1,1.93-1.93Z"/><path class="cls-12" d="M15.51,14.48h-4a1.94,1.94,0,0,0-1.93,1.93h0a1.93,1.93,0,0,0,1.93,1.93h0a1.93,1.93,0,0,1-1.93-1.93h0a1.94,1.94,0,0,1,1.93-1.93Z"/><path class="cls-12" d="M23.23,22.21H13.71a1.93,1.93,0,0,1-1.93-1.94h0a1.93,1.93,0,0,1,1.93-1.93h0a1.93,1.93,0,0,0-1.93,1.93h0a1.93,1.93,0,0,0,1.93,1.94Z"/><line class="cls-13" x1="23.88" y1="3.8" x2="14.04" y2="3.8"/><line class="cls-12" x1="9.79" y1="25.26" x2="7.32" y2="25.26"/><line class="cls-13" x1="12.52" y1="3.8" x2="11" y2="3.8"/><line class="cls-13" x1="34" y1="6.99" x2="24.16" y2="6.99"/><line class="cls-13" x1="22.64" y1="6.99" x2="21.12" y2="6.99"/><line class="cls-13" x1="32.13" y1="0.76" x2="22.29" y2="0.76"/><line class="cls-13" x1="20.77" y1="0.76" x2="19.25" y2="0.76"/><line class="cls-13" x1="10.78" y1="29.31" x2="7.32" y2="29.31"/><path class="cls-12" d="M195.93,7.28v8a15.08,15.08,0,0,1-11.3,14.59,15.08,15.08,0,0,1-11.3-14.59v-8l11.3-4.52Z"/><path class="cls-12" d="M184.06,19.16h0l-3.39-3.39s0,0,0,0h0l3.38,3.38,5.65-5.64h0s0,0,0,0l-5.65,5.65Z"/><path class="cls-14" d="M105.12,2.78A14.85,14.85,0,0,1,120,17.63c0,8.19-6.65,14-14.85,14v3.83L97.8,28.1l7.32-6.52v3.79c6,0,10.93-4.85,10.93-11.66a10.93,10.93,0,1,0-17.88,8.43"/><path class="cls-14" d="M107.38,11.31A2.79,2.79,0,0,0,105,9.83a1.77,1.77,0,0,0-1,3.32c.89.45,3.27.68,3.22,2.6-.06,2.19-3.57,2.52-4.43.25"/><line class="cls-14" x1="105.12" y1="9.86" x2="105.12" y2="7.78"/><line class="cls-14" x1="105.12" y1="19.63" x2="105.12" y2="17.55"/></g></g></svg>