<svg width="292" height="128" viewBox="0 0 292 128" fill="none" xmlns="http://www.w3.org/2000/svg">
<path d="M49.7245 70.0649H61.0196V48.7087C61.0196 46.2174 60.03 43.8282 58.2684 42.0666C56.5069 40.3051 54.1176 39.3154 51.6264 39.3154H34.6982" stroke="#375F78" stroke-width="1.52" stroke-miterlimit="10" stroke-linecap="square"/>
<path d="M39.852 70.0642H34.4222V60.5693" stroke="#375F78" stroke-width="1.52" stroke-miterlimit="10" stroke-linecap="square"/>
<path d="M49.7244 70.0646C49.7243 71.044 49.4329 72.0012 48.8872 72.8144C48.3415 73.6277 47.5663 74.2602 46.6601 74.6316C45.7539 75.003 44.7577 75.0964 43.7982 74.9C42.8388 74.7036 41.9594 74.2262 41.2721 73.5286C40.5847 72.8309 40.1204 71.9446 39.9382 70.9824C39.756 70.0201 39.8642 69.0254 40.249 68.1248C40.6337 67.2242 41.2777 66.4584 42.0989 65.9248C42.9202 65.3913 43.8816 65.1141 44.8608 65.1285C46.1573 65.1475 47.3943 65.676 48.3044 66.5997C49.2145 67.5233 49.7245 68.768 49.7244 70.0646V70.0646Z" stroke="#375F78" stroke-width="1.52" stroke-miterlimit="10" stroke-linecap="square"/>
<path d="M74.536 70.0641C74.536 71.041 74.2462 71.996 73.7031 72.808C73.1601 73.6201 72.3883 74.2527 71.4855 74.6259C70.5827 74.9991 69.5894 75.096 68.6315 74.9044C67.6736 74.7127 66.7941 74.2411 66.1043 73.5494C65.4146 72.8576 64.9456 71.9767 64.7568 71.0182C64.568 70.0597 64.6678 69.0668 65.0436 68.165C65.4195 67.2633 66.0544 66.4934 66.8681 65.9528C67.6817 65.4121 68.6375 65.1251 69.6144 65.128C70.921 65.1318 72.1728 65.6536 73.0954 66.5788C74.018 67.5041 74.536 68.7575 74.536 70.0641Z" stroke="#375F78" stroke-width="1.52" stroke-miterlimit="10" stroke-linecap="square"/>
<path d="M74.5359 70.0642H75.9877C76.2482 70.0642 76.5062 70.0127 76.7467 69.9125C76.9872 69.8124 77.2055 69.6657 77.389 69.4808C77.5725 69.2959 77.7177 69.0765 77.8161 68.8353C77.9144 68.594 77.9641 68.3357 77.9622 68.0752V59.2046C77.9631 58.7982 77.8472 58.4001 77.6282 58.0577L73.1712 51.3648C72.6221 50.5482 71.8808 49.8788 71.0126 49.4156C70.1443 48.9523 69.1756 48.7093 68.1914 48.708H62.3842C60.9324 48.708 60.9324 49.8549 60.9324 51.2632V70.1368H64.5909" stroke="#375F78" stroke-width="1.52" stroke-miterlimit="10" stroke-linecap="square"/>
<path d="M66.8994 53.7754V58.5809H77.4831" stroke="#375F78" stroke-width="1.52" stroke-miterlimit="10"/>
<path d="M56.5915 64.1846H54.3848" stroke="#375F78" stroke-width="1.52" stroke-miterlimit="10"/>
<path d="M35.7435 39.3155H27.802C27.4335 39.3135 27.0683 39.3847 26.7275 39.5248C26.3867 39.665 26.077 39.8713 25.8164 40.1319C25.5559 40.3924 25.3495 40.7021 25.2094 41.0429C25.0693 41.3837 24.9981 41.749 25 42.1175V42.1175C24.9981 42.486 25.0693 42.8512 25.2094 43.192C25.3495 43.5328 25.5559 43.8425 25.8164 44.1031C26.077 44.3637 26.3867 44.57 26.7275 44.7101C27.0683 44.8502 27.4335 44.9214 27.802 44.9195V44.9195C27.4335 44.9214 27.0683 44.8502 26.7275 44.7101C26.3867 44.57 26.077 44.3637 25.8164 44.1031C25.5559 43.8425 25.3495 43.5328 25.2094 43.192C25.0693 42.8512 24.9981 42.486 25 42.1175V42.1175C24.9981 41.749 25.0693 41.3837 25.2094 41.0429C25.3495 40.7021 25.5559 40.3924 25.8164 40.1319C26.077 39.8713 26.3867 39.665 26.7275 39.5248C27.0683 39.3847 27.4335 39.3135 27.802 39.3155H35.7435Z" stroke="#375F78" stroke-width="1.52" stroke-miterlimit="10" stroke-linecap="square"/>
<path d="M36.8904 44.9189H31.0831C30.3412 44.9228 29.6307 45.2192 29.106 45.7438C28.5814 46.2685 28.2849 46.979 28.2811 47.7209V47.7209C28.2811 48.4641 28.5763 49.1768 29.1018 49.7023C29.6273 50.2277 30.34 50.523 31.0831 50.523V50.523C30.34 50.523 29.6273 50.2277 29.1018 49.7023C28.5763 49.1768 28.2811 48.4641 28.2811 47.7209V47.7209C28.2849 46.979 28.5814 46.2685 29.106 45.7438C29.6307 45.2192 30.3412 44.9228 31.0831 44.9189H36.8904Z" stroke="#375F78" stroke-width="1.52" stroke-miterlimit="10" stroke-linecap="square"/>
<path d="M48.0984 56.142H34.2771C33.9079 56.142 33.5424 56.069 33.2015 55.9273C32.8606 55.7856 32.5511 55.5779 32.2907 55.3161C32.0303 55.0544 31.8242 54.7438 31.6842 54.4022C31.5443 54.0605 31.4732 53.6946 31.4751 53.3254V53.3254C31.4751 52.5823 31.7703 51.8696 32.2958 51.3441C32.8213 50.8186 33.534 50.5234 34.2771 50.5234V50.5234C33.534 50.5234 32.8213 50.8186 32.2958 51.3441C31.7703 51.8696 31.4751 52.5823 31.4751 53.3254V53.3254C31.4732 53.6946 31.5443 54.0605 31.6842 54.4022C31.8242 54.7438 32.0303 55.0544 32.2907 55.3161C32.5511 55.5779 32.8606 55.7856 33.2015 55.9273C33.5424 56.069 33.9079 56.142 34.2771 56.142H48.0984Z" stroke="#375F78" stroke-width="1.52" stroke-miterlimit="10" stroke-linecap="square"/>
<path d="M49.042 29.4141H34.7561" stroke="#375F78" stroke-width="1.52" stroke-miterlimit="10"/>
<path d="M28.586 60.5693H25" stroke="#375F78" stroke-width="1.52" stroke-miterlimit="10" stroke-linecap="square"/>
<path d="M32.5495 29.4141H30.3428" stroke="#375F78" stroke-width="1.52" stroke-miterlimit="10"/>
<path d="M63.7346 34.0459H49.4487" stroke="#375F78" stroke-width="1.52" stroke-miterlimit="10"/>
<path d="M47.2419 34.0459H45.0352" stroke="#375F78" stroke-width="1.52" stroke-miterlimit="10"/>
<path d="M61.0195 25H46.7336" stroke="#375F78" stroke-width="1.52" stroke-miterlimit="10"/>
<path d="M44.5269 25H42.3202" stroke="#375F78" stroke-width="1.52" stroke-miterlimit="10"/>
<path d="M30.0233 66.4492H25" stroke="#375F78" stroke-width="1.52" stroke-miterlimit="10"/>
<path d="M25.6903 92V86.2994H29.1085V86.9117H26.3806V88.8379H28.8524V89.4503H26.3806V92H25.6903ZM30.2908 92V86.2994H32.2169C32.6623 86.2994 33.0279 86.3755 33.3137 86.5276C33.5994 86.6779 33.811 86.8848 33.9483 87.1483C34.0856 87.4118 34.1543 87.7115 34.1543 88.0474C34.1543 88.3833 34.0856 88.6811 33.9483 88.9409C33.811 89.2007 33.6004 89.4048 33.3164 89.5533C33.0325 89.6999 32.6697 89.7732 32.2281 89.7732H30.6693V89.1497H32.2058C32.5101 89.1497 32.7551 89.1051 32.9407 89.0161C33.1281 88.927 33.2635 88.8008 33.3471 88.6375C33.4324 88.4724 33.4751 88.2757 33.4751 88.0474C33.4751 87.8192 33.4324 87.6197 33.3471 87.449C33.2617 87.2782 33.1253 87.1465 32.9379 87.0537C32.7505 86.9591 32.5027 86.9117 32.1947 86.9117H30.9811V92H30.2908ZM32.9741 89.4392L34.377 92H33.5753L32.1947 89.4392H32.9741ZM35.3046 92V86.2994H38.745V86.9117H35.9949V88.8379H38.5668V89.4503H35.9949V91.3876H38.7895V92H35.3046ZM39.9892 92V86.2994H43.4296V86.9117H40.6795V88.8379H43.2515V89.4503H40.6795V91.3876H43.4742V92H39.9892ZM49.9959 87.7245C49.9625 87.4425 49.8271 87.2235 49.5895 87.0676C49.352 86.9117 49.0607 86.8338 48.7155 86.8338C48.4631 86.8338 48.2423 86.8746 48.053 86.9563C47.8656 87.0379 47.719 87.1502 47.6132 87.2931C47.5093 87.436 47.4574 87.5983 47.4574 87.7802C47.4574 87.9324 47.4936 88.0632 47.5659 88.1727C47.6402 88.2803 47.7348 88.3703 47.8498 88.4427C47.9649 88.5132 48.0855 88.5716 48.2117 88.618C48.3379 88.6626 48.4539 88.6988 48.5596 88.7266L49.1386 88.8825C49.2871 88.9214 49.4522 88.9753 49.6341 89.0439C49.8178 89.1126 49.9931 89.2063 50.1602 89.325C50.329 89.442 50.4682 89.5923 50.5777 89.776C50.6872 89.9597 50.7419 90.1852 50.7419 90.4524C50.7419 90.7604 50.6612 91.0388 50.4997 91.2874C50.3402 91.5361 50.1063 91.7337 49.7983 91.8803C49.4921 92.0269 49.1201 92.1002 48.6821 92.1002C48.2739 92.1002 47.9204 92.0343 47.6216 91.9026C47.3247 91.7708 47.0909 91.5871 46.9201 91.3514C46.7513 91.1158 46.6557 90.8421 46.6334 90.5303H47.346C47.3646 90.7456 47.437 90.9237 47.5631 91.0647C47.6912 91.2039 47.8526 91.3078 48.0475 91.3765C48.2442 91.4433 48.4557 91.4767 48.6821 91.4767C48.9456 91.4767 49.1822 91.434 49.3919 91.3487C49.6016 91.2614 49.7677 91.1408 49.8902 90.9868C50.0126 90.8309 50.0739 90.6491 50.0739 90.4412C50.0739 90.252 50.021 90.0979 49.9152 89.9792C49.8094 89.8604 49.6703 89.7639 49.4977 89.6897C49.3251 89.6155 49.1386 89.5505 48.9382 89.4948L48.2367 89.2944C47.7914 89.1664 47.4388 88.9836 47.179 88.7461C46.9192 88.5085 46.7893 88.1977 46.7893 87.8136C46.7893 87.4944 46.8756 87.2161 47.0482 86.9785C47.2226 86.7392 47.4564 86.5536 47.7496 86.4218C48.0447 86.2882 48.3741 86.2214 48.7378 86.2214C49.1052 86.2214 49.4318 86.2873 49.7176 86.4191C50.0034 86.549 50.2297 86.7271 50.3968 86.9535C50.5656 87.1799 50.6547 87.4369 50.664 87.7245H49.9959ZM51.8769 92V86.2994H52.5672V88.8379H55.6068V86.2994H56.2971V92H55.6068V89.4503H52.5672V92H51.8769ZM58.3694 86.2994V92H57.6791V86.2994H58.3694ZM59.7535 92V86.2994H61.6797C62.1269 86.2994 62.4925 86.3801 62.7764 86.5415C63.0622 86.7011 63.2737 86.9173 63.4111 87.1901C63.5484 87.4629 63.617 87.7672 63.617 88.1031C63.617 88.439 63.5484 88.7442 63.4111 89.0189C63.2756 89.2935 63.0659 89.5125 62.782 89.6758C62.4981 89.8372 62.1344 89.9179 61.6909 89.9179H60.3102V89.3056H61.6686C61.9748 89.3056 62.2206 89.2527 62.4062 89.1469C62.5918 89.0411 62.7263 88.8982 62.8098 88.7182C62.8952 88.5364 62.9379 88.3313 62.9379 88.1031C62.9379 87.8748 62.8952 87.6707 62.8098 87.4907C62.7263 87.3107 62.5909 87.1697 62.4034 87.0676C62.216 86.9637 61.9673 86.9117 61.6574 86.9117H60.4438V92H59.7535ZM64.7291 92V86.2994H66.6552C67.1025 86.2994 67.468 86.3801 67.7519 86.5415C68.0377 86.7011 68.2493 86.9173 68.3866 87.1901C68.5239 87.4629 68.5926 87.7672 68.5926 88.1031C68.5926 88.439 68.5239 88.7442 68.3866 89.0189C68.2511 89.2935 68.0414 89.5125 67.7575 89.6758C67.4736 89.8372 67.1099 89.9179 66.6664 89.9179H65.2858V89.3056H66.6441C66.9503 89.3056 67.1962 89.2527 67.3817 89.1469C67.5673 89.0411 67.7018 88.8982 67.7853 88.7182C67.8707 88.5364 67.9134 88.3313 67.9134 88.1031C67.9134 87.8748 67.8707 87.6707 67.7853 87.4907C67.7018 87.3107 67.5664 87.1697 67.379 87.0676C67.1915 86.9637 66.9429 86.9117 66.633 86.9117H65.4194V92H64.7291ZM70.3949 86.2994V92H69.7046V86.2994H70.3949ZM76.2994 86.2994V92H75.6314L72.525 87.5241H72.4693V92H71.779V86.2994H72.447L75.5646 90.7864H75.6202V86.2994H76.2994ZM81.5776 88.0808C81.5164 87.8934 81.4357 87.7255 81.3355 87.577C81.2371 87.4267 81.1193 87.2986 80.982 87.1929C80.8465 87.0871 80.6925 87.0064 80.5199 86.9507C80.3473 86.895 80.1581 86.8672 79.9521 86.8672C79.6143 86.8672 79.3072 86.9544 79.0307 87.1289C78.7542 87.3033 78.5343 87.5603 78.371 87.8999C78.2077 88.2395 78.1261 88.6561 78.1261 89.1497C78.1261 89.6433 78.2087 90.0599 78.3738 90.3995C78.539 90.7391 78.7626 90.9961 79.0446 91.1705C79.3267 91.3449 79.644 91.4322 79.9966 91.4322C80.3232 91.4322 80.6108 91.3626 80.8595 91.2234C81.11 91.0824 81.3049 90.8838 81.444 90.6277C81.5851 90.3698 81.6556 90.0664 81.6556 89.7175L81.8671 89.7621H80.1525V89.1497H82.3236V89.7621C82.3236 90.2315 82.2234 90.6398 82.023 90.9868C81.8244 91.3338 81.5498 91.6029 81.1991 91.794C80.8502 91.9833 80.4494 92.0779 79.9966 92.0779C79.4919 92.0779 79.0484 91.9592 78.6661 91.7216C78.2857 91.4841 77.9888 91.1464 77.7754 90.7085C77.5638 90.2705 77.458 89.7509 77.458 89.1497C77.458 88.6988 77.5184 88.2933 77.639 87.9333C77.7615 87.5714 77.934 87.2634 78.1567 87.0092C78.3794 86.7549 78.6429 86.5601 78.9472 86.4246C79.2516 86.2892 79.5865 86.2214 79.9521 86.2214C80.2527 86.2214 80.5329 86.2669 80.7927 86.3578C81.0543 86.4469 81.2872 86.574 81.4914 86.7392C81.6973 86.9025 81.869 87.0982 82.0063 87.3265C82.1436 87.5529 82.2383 87.8043 82.2902 88.0808H81.5776Z" fill="#375F78"/>
<path d="M139.72 25.0088C142.707 25.0028 145.666 25.5859 148.427 26.7248C151.188 27.8637 153.698 29.536 155.812 31.646C157.927 33.7561 159.604 36.2623 160.748 39.0214C161.893 41.7804 162.482 44.7381 162.482 47.7251C162.482 60.2535 152.309 69.1412 139.766 69.1412V75L128.522 63.7413L139.72 53.7675V59.5652C148.898 59.5652 156.44 52.146 156.44 41.7287C156.441 38.9106 155.73 36.1378 154.373 33.6681C153.016 31.1983 151.057 29.1116 148.677 27.6018C146.298 26.0921 143.575 25.2083 140.763 25.0325C137.95 24.8568 135.139 25.3948 132.59 26.5966C130.041 27.7984 127.837 29.6249 126.183 31.9066C124.529 34.1882 123.478 36.8509 123.129 39.6472C122.78 42.4436 123.143 45.2828 124.185 47.9013C125.226 50.5197 126.913 52.8323 129.088 54.6242" stroke="#375F78" stroke-width="1.43" stroke-miterlimit="10" stroke-linecap="square"/>
<path d="M143.177 38.0551C142.824 37.3901 142.301 36.8304 141.661 36.4328C141.022 36.0352 140.289 35.8138 139.536 35.7911C138.915 35.7354 138.294 35.8955 137.778 36.2446C137.261 36.5936 136.881 37.1101 136.701 37.707C136.522 38.3038 136.553 38.9444 136.791 39.5207C137.029 40.0969 137.458 40.5734 138.006 40.8698C139.368 41.5582 143.009 41.91 142.932 44.8471C142.84 48.1971 137.471 48.702 136.156 45.2295" stroke="#375F78" stroke-width="1.43" stroke-miterlimit="10" stroke-linecap="square"/>
<path d="M139.72 35.8381V32.6562" stroke="#375F78" stroke-width="1.43" stroke-miterlimit="10" stroke-linecap="square"/>
<path d="M139.72 50.7834V47.6016" stroke="#375F78" stroke-width="1.43" stroke-miterlimit="10" stroke-linecap="square"/>
<path d="M117.164 92.0779C116.93 92.0742 116.697 92.0297 116.463 91.9443C116.229 91.859 116.016 91.7152 115.823 91.5129C115.63 91.3088 115.475 91.0332 115.358 90.6862C115.241 90.3373 115.182 89.8994 115.182 89.3724C115.182 88.8676 115.23 88.4204 115.324 88.0307C115.419 87.6392 115.556 87.3098 115.736 87.0426C115.916 86.7735 116.133 86.5694 116.388 86.4302C116.644 86.291 116.932 86.2214 117.253 86.2214C117.572 86.2214 117.856 86.2855 118.105 86.4135C118.356 86.5397 118.56 86.716 118.717 86.9424C118.875 87.1688 118.977 87.4295 119.024 87.7245H118.344C118.281 87.4684 118.159 87.256 117.977 87.0871C117.795 86.9182 117.554 86.8338 117.253 86.8338C116.812 86.8338 116.464 87.0259 116.209 87.41C115.957 87.7941 115.83 88.3332 115.828 89.0272H115.873C115.977 88.8695 116.1 88.7349 116.243 88.6236C116.388 88.5104 116.547 88.4232 116.722 88.362C116.896 88.3007 117.081 88.2701 117.276 88.2701C117.602 88.2701 117.901 88.3517 118.172 88.515C118.443 88.6765 118.66 88.9001 118.823 89.1859C118.986 89.4698 119.068 89.7955 119.068 90.1629C119.068 90.5155 118.989 90.8383 118.832 91.1315C118.674 91.4229 118.452 91.6548 118.166 91.8274C117.882 91.9981 117.548 92.0816 117.164 92.0779ZM117.164 91.4656C117.398 91.4656 117.608 91.4071 117.793 91.2902C117.981 91.1733 118.128 91.0165 118.236 90.8198C118.345 90.6231 118.4 90.4041 118.4 90.1629C118.4 89.9272 118.347 89.7129 118.241 89.5199C118.137 89.325 117.994 89.1701 117.81 89.055C117.628 88.94 117.42 88.8825 117.186 88.8825C117.01 88.8825 116.846 88.9177 116.694 88.9882C116.542 89.0569 116.408 89.1515 116.293 89.2722C116.18 89.3928 116.091 89.531 116.026 89.6869C115.961 89.8409 115.928 90.0033 115.928 90.174C115.928 90.4004 115.981 90.612 116.087 90.8087C116.195 91.0054 116.341 91.164 116.527 91.2846C116.714 91.4053 116.927 91.4656 117.164 91.4656ZM122.022 92.0779C121.603 92.0779 121.246 91.9638 120.95 91.7356C120.655 91.5055 120.43 91.1724 120.274 90.7363C120.118 90.2983 120.04 89.7695 120.04 89.1497C120.04 88.5336 120.118 88.0075 120.274 87.5714C120.432 87.1335 120.658 86.7995 120.953 86.5694C121.25 86.3374 121.606 86.2214 122.022 86.2214C122.438 86.2214 122.793 86.3374 123.088 86.5694C123.385 86.7995 123.611 87.1335 123.767 87.5714C123.925 88.0075 124.004 88.5336 124.004 89.1497C124.004 89.7695 123.926 90.2983 123.77 90.7363C123.614 91.1724 123.389 91.5055 123.094 91.7356C122.799 91.9638 122.441 92.0779 122.022 92.0779ZM122.022 91.4656C122.438 91.4656 122.761 91.2652 122.991 90.8643C123.221 90.4635 123.336 89.892 123.336 89.1497C123.336 88.6561 123.283 88.2358 123.177 87.8888C123.073 87.5417 122.923 87.2773 122.726 87.0955C122.531 86.9136 122.297 86.8227 122.022 86.8227C121.61 86.8227 121.288 87.0259 121.056 87.4323C120.824 87.8368 120.708 88.4093 120.708 89.1497C120.708 89.6433 120.76 90.0627 120.864 90.4078C120.968 90.753 121.117 91.0156 121.312 91.1956C121.509 91.3756 121.746 91.4656 122.022 91.4656ZM127.522 88.8435V89.4559H125.028V88.8435H127.522ZM130.526 92H128.767V86.2994H130.604C131.157 86.2994 131.631 86.4135 132.024 86.6417C132.417 86.8681 132.719 87.1938 132.929 87.6188C133.138 88.0418 133.243 88.5484 133.243 89.1386C133.243 89.7324 133.137 90.2436 132.926 90.6723C132.714 91.0991 132.406 91.4275 132.002 91.6576C131.597 91.8859 131.105 92 130.526 92ZM129.458 91.3876H130.482C130.953 91.3876 131.344 91.2967 131.654 91.1148C131.964 90.933 132.195 90.6741 132.347 90.3382C132.499 90.0024 132.575 89.6025 132.575 89.1386C132.575 88.6783 132.5 88.2822 132.35 87.95C132.199 87.616 131.975 87.3599 131.676 87.1817C131.377 87.0017 131.005 86.9117 130.56 86.9117H129.458V91.3876ZM134.367 92H133.643L135.736 86.2994H136.449L138.542 92H137.819L136.115 87.2012H136.07L134.367 92ZM134.634 89.7732H137.551V90.3856H134.634V89.7732ZM138.359 86.2994H139.149L140.73 88.9604H140.797L142.378 86.2994H143.168L141.109 89.6507V92H140.418V89.6507L138.359 86.2994ZM146.266 86.2994H147.09L149.027 91.0313H149.094L151.031 86.2994H151.855V92H151.209V87.6689H151.154L149.372 92H148.749L146.967 87.6689H146.912V92H146.266V86.2994ZM158.049 89.1497C158.049 89.7509 157.941 90.2705 157.723 90.7085C157.506 91.1464 157.208 91.4841 156.83 91.7216C156.451 91.9592 156.019 92.0779 155.533 92.0779C155.047 92.0779 154.614 91.9592 154.236 91.7216C153.857 91.4841 153.559 91.1464 153.342 90.7085C153.125 90.2705 153.017 89.7509 153.017 89.1497C153.017 88.5484 153.125 88.0289 153.342 87.5909C153.559 87.153 153.857 86.8152 154.236 86.5777C154.614 86.3402 155.047 86.2214 155.533 86.2214C156.019 86.2214 156.451 86.3402 156.83 86.5777C157.208 86.8152 157.506 87.153 157.723 87.5909C157.941 88.0289 158.049 88.5484 158.049 89.1497ZM157.381 89.1497C157.381 88.6561 157.298 88.2395 157.133 87.8999C156.97 87.5603 156.748 87.3033 156.468 87.1289C156.19 86.9544 155.878 86.8672 155.533 86.8672C155.188 86.8672 154.875 86.9544 154.595 87.1289C154.316 87.3033 154.095 87.5603 153.929 87.8999C153.766 88.2395 153.685 88.6561 153.685 89.1497C153.685 89.6433 153.766 90.0599 153.929 90.3995C154.095 90.7391 154.316 90.9961 154.595 91.1705C154.875 91.3449 155.188 91.4322 155.533 91.4322C155.878 91.4322 156.19 91.3449 156.468 91.1705C156.748 90.9961 156.97 90.7391 157.133 90.3995C157.298 90.0599 157.381 89.6433 157.381 89.1497ZM163.73 86.2994V92H163.062L159.956 87.5241H159.9V92H159.21V86.2994H159.878L162.995 90.7864H163.051V86.2994H163.73ZM165.112 92V86.2994H168.552V86.9117H165.802V88.8379H168.374V89.4503H165.802V91.3876H168.597V92H165.112ZM169.306 86.2994H170.097L171.678 88.9604H171.745L173.326 86.2994H174.116L172.056 89.6507V92H171.366V89.6507L169.306 86.2994ZM109.845 101V95.2994H111.838C112.235 95.2994 112.563 95.368 112.821 95.5053C113.078 95.6408 113.271 95.8236 113.397 96.0537C113.523 96.2819 113.586 96.5352 113.586 96.8136C113.586 97.0585 113.542 97.2608 113.455 97.4204C113.37 97.58 113.257 97.7062 113.116 97.799C112.976 97.8917 112.825 97.9604 112.662 98.0049V98.0606C112.836 98.0717 113.012 98.133 113.188 98.2443C113.364 98.3557 113.512 98.5153 113.631 98.7231C113.749 98.9309 113.809 99.1852 113.809 99.4858C113.809 99.7715 113.744 100.029 113.614 100.257C113.484 100.485 113.279 100.666 112.999 100.8C112.718 100.933 112.354 101 111.905 101H109.845ZM110.535 100.388H111.905C112.356 100.388 112.676 100.3 112.865 100.126C113.056 99.9497 113.152 99.7363 113.152 99.4858C113.152 99.2928 113.103 99.1146 113.004 98.9513C112.906 98.7862 112.766 98.6544 112.584 98.5561C112.402 98.4559 112.187 98.4058 111.938 98.4058H110.535V100.388ZM110.535 97.8045H111.816C112.024 97.8045 112.211 97.7637 112.378 97.6821C112.547 97.6004 112.68 97.4854 112.779 97.3369C112.879 97.1884 112.929 97.014 112.929 96.8136C112.929 96.5631 112.842 96.3506 112.667 96.1762C112.493 95.9999 112.216 95.9117 111.838 95.9117H110.535V97.8045ZM115.177 101H114.453L116.546 95.2994H117.259L119.352 101H118.628L116.925 96.2012H116.88L115.177 101ZM115.444 98.7732H118.361V99.3856H115.444V98.7732ZM124.559 97.0808H123.869C123.828 96.8823 123.757 96.7078 123.655 96.5575C123.554 96.4072 123.432 96.281 123.287 96.179C123.144 96.075 122.986 95.9971 122.811 95.9451C122.637 95.8932 122.455 95.8672 122.266 95.8672C121.921 95.8672 121.608 95.9544 121.328 96.1289C121.049 96.3033 120.828 96.5603 120.662 96.8999C120.499 97.2395 120.417 97.6561 120.417 98.1497C120.417 98.6433 120.499 99.0599 120.662 99.3995C120.828 99.7391 121.049 99.9961 121.328 100.171C121.608 100.345 121.921 100.432 122.266 100.432C122.455 100.432 122.637 100.406 122.811 100.354C122.986 100.302 123.144 100.225 123.287 100.123C123.432 100.019 123.554 99.8922 123.655 99.7419C123.757 99.5897 123.828 99.4153 123.869 99.2186H124.559C124.507 99.5099 124.413 99.7706 124.275 100.001C124.138 100.231 123.967 100.427 123.763 100.588C123.559 100.748 123.33 100.869 123.076 100.953C122.823 101.036 122.553 101.078 122.266 101.078C121.779 101.078 121.347 100.959 120.969 100.722C120.59 100.484 120.292 100.146 120.075 99.7085C119.858 99.2705 119.749 98.7509 119.749 98.1497C119.749 97.5484 119.858 97.0289 120.075 96.5909C120.292 96.153 120.59 95.8152 120.969 95.5777C121.347 95.3402 121.779 95.2214 122.266 95.2214C122.553 95.2214 122.823 95.2632 123.076 95.3467C123.33 95.4302 123.559 95.5527 123.763 95.7141C123.967 95.8737 124.138 96.0685 124.275 96.2986C124.413 96.5269 124.507 96.7876 124.559 97.0808ZM125.675 101V95.2994H126.365V98.1274H126.432L128.993 95.2994H129.895L127.501 97.8713L129.895 101H129.06L127.078 98.3501L126.365 99.1517V101H125.675ZM136.89 97.0808C136.828 96.8934 136.748 96.7255 136.647 96.577C136.549 96.4267 136.431 96.2986 136.294 96.1929C136.158 96.0871 136.004 96.0064 135.832 95.9507C135.659 95.895 135.47 95.8672 135.264 95.8672C134.926 95.8672 134.619 95.9544 134.343 96.1289C134.066 96.3033 133.846 96.5603 133.683 96.8999C133.52 97.2395 133.438 97.6561 133.438 98.1497C133.438 98.6433 133.521 99.0599 133.686 99.3995C133.851 99.7391 134.074 99.9961 134.357 100.171C134.639 100.345 134.956 100.432 135.308 100.432C135.635 100.432 135.923 100.363 136.171 100.223C136.422 100.082 136.617 99.8838 136.756 99.6277C136.897 99.3698 136.967 99.0664 136.967 98.7175L137.179 98.7621H135.464V98.1497H137.636V98.7621C137.636 99.2315 137.535 99.6398 137.335 99.9868C137.136 100.334 136.862 100.603 136.511 100.794C136.162 100.983 135.761 101.078 135.308 101.078C134.804 101.078 134.36 100.959 133.978 100.722C133.598 100.484 133.301 100.146 133.087 99.7085C132.876 99.2705 132.77 98.7509 132.77 98.1497C132.77 97.6988 132.83 97.2933 132.951 96.9333C133.073 96.5714 133.246 96.2634 133.469 96.0092C133.691 95.7549 133.955 95.5601 134.259 95.4246C134.563 95.2892 134.898 95.2214 135.264 95.2214C135.565 95.2214 135.845 95.2669 136.105 95.3578C136.366 95.4469 136.599 95.574 136.803 95.7392C137.009 95.9025 137.181 96.0982 137.318 96.3265C137.456 96.5529 137.55 96.8043 137.602 97.0808H136.89ZM142.559 95.2994H143.249V99.0738C143.249 99.4635 143.157 99.8114 142.974 100.118C142.792 100.422 142.535 100.662 142.203 100.839C141.87 101.013 141.481 101.1 141.033 101.1C140.586 101.1 140.197 101.013 139.864 100.839C139.532 100.662 139.274 100.422 139.091 100.118C138.909 99.8114 138.818 99.4635 138.818 99.0738V95.2994H139.508V99.0181C139.508 99.2965 139.569 99.5442 139.692 99.7613C139.814 99.9766 139.989 100.146 140.215 100.271C140.443 100.393 140.716 100.454 141.033 100.454C141.351 100.454 141.624 100.393 141.852 100.271C142.08 100.146 142.255 99.9766 142.375 99.7613C142.498 99.5442 142.559 99.2965 142.559 99.0181V95.2994ZM144.862 101H144.138L146.231 95.2994H146.944L149.037 101H148.313L146.61 96.2012H146.565L144.862 101ZM145.129 98.7732H148.046V99.3856H145.129V98.7732ZM149.925 101V95.2994H151.851C152.296 95.2994 152.662 95.3755 152.948 95.5276C153.233 95.6779 153.445 95.8848 153.582 96.1483C153.72 96.4118 153.788 96.7115 153.788 97.0474C153.788 97.3833 153.72 97.6811 153.582 97.9409C153.445 98.2007 153.234 98.4048 152.95 98.5533C152.666 98.6999 152.304 98.7732 151.862 98.7732H150.303V98.1497H151.84C152.144 98.1497 152.389 98.1051 152.575 98.0161C152.762 97.927 152.898 97.8008 152.981 97.6375C153.066 97.4724 153.109 97.2757 153.109 97.0474C153.109 96.8192 153.066 96.6197 152.981 96.449C152.896 96.2782 152.759 96.1465 152.572 96.0537C152.384 95.9591 152.137 95.9117 151.829 95.9117H150.615V101H149.925ZM152.608 98.4392L154.011 101H153.209L151.829 98.4392H152.608ZM155.172 101H154.449L156.542 95.2994H157.254L159.348 101H158.624L156.92 96.2012H156.876L155.172 101ZM155.44 98.7732H158.357V99.3856H155.44V98.7732ZM164.756 95.2994V101H164.088L160.982 96.5241H160.926V101H160.236V95.2994H160.904L164.021 99.7864H164.077V95.2994H164.756ZM165.826 95.9117V95.2994H170.101V95.9117H168.308V101H167.618V95.9117H165.826ZM171.166 101V95.2994H174.607V95.9117H171.857V97.8379H174.429V98.4503H171.857V100.388H174.651V101H171.166ZM175.851 101V95.2994H179.291V95.9117H176.541V97.8379H179.113V98.4503H176.541V100.388H179.336V101H175.851Z" fill="#375F78"/>
<path d="M255.682 33.3364V48.0911C255.679 54.2511 253.63 60.2356 249.858 65.1057C246.086 69.9758 240.804 73.4559 234.841 75C228.878 73.4559 223.596 69.9758 219.824 65.1057C216.052 60.2356 214.003 54.2511 214 48.0911V33.3364L234.841 25L255.682 33.3364Z" stroke="#375F78" stroke-width="1.52" stroke-miterlimit="10" stroke-linecap="square"/>
<path d="M233.79 55.2477L227.537 48.9954L233.771 55.2292L244.192 44.8271L233.771 55.2477H233.79Z" stroke="#375F78" stroke-width="1.52" stroke-miterlimit="10" stroke-linecap="square"/>
<path d="M206.969 92V91.499L208.851 89.4392C209.072 89.1979 209.253 88.9882 209.396 88.8101C209.539 88.6301 209.645 88.4612 209.714 88.3035C209.784 88.1439 209.819 87.9769 209.819 87.8025C209.819 87.6021 209.771 87.4285 209.675 87.2819C209.58 87.1354 209.45 87.0222 209.285 86.9424C209.12 86.8626 208.934 86.8227 208.728 86.8227C208.509 86.8227 208.318 86.8681 208.155 86.9591C207.993 87.0481 207.868 87.1734 207.779 87.3348C207.692 87.4963 207.648 87.6856 207.648 87.9027H206.991C206.991 87.5687 207.068 87.2755 207.222 87.0231C207.376 86.7707 207.586 86.574 207.851 86.433C208.119 86.2919 208.418 86.2214 208.75 86.2214C209.085 86.2214 209.38 86.2919 209.638 86.433C209.896 86.574 210.099 86.7642 210.245 87.0036C210.392 87.243 210.465 87.5093 210.465 87.8025C210.465 88.0122 210.427 88.2172 210.351 88.4176C210.277 88.6162 210.147 88.8379 209.961 89.0829C209.778 89.326 209.522 89.6229 209.196 89.9736L207.915 91.3431V91.3876H210.565V92H206.969ZM213.53 86.2994H214.32L215.901 88.9604H215.968L217.549 86.2994H218.34L216.28 89.6507V92H215.59V89.6507L213.53 86.2994ZM219.232 92V86.2994H222.673V86.9117H219.923V88.8379H222.495V89.4503H219.923V91.3876H222.717V92H219.232ZM224.151 92H223.427L225.52 86.2994H226.233L228.326 92H227.603L225.899 87.2012H225.854L224.151 92ZM224.418 89.7732H227.335V90.3856H224.418V89.7732ZM229.214 92V86.2994H231.14C231.586 86.2994 231.951 86.3755 232.237 86.5276C232.523 86.6779 232.734 86.8848 232.872 87.1483C233.009 87.4118 233.078 87.7115 233.078 88.0474C233.078 88.3833 233.009 88.6811 232.872 88.9409C232.734 89.2007 232.524 89.4048 232.24 89.5533C231.956 89.6999 231.593 89.7732 231.151 89.7732H229.593V89.1497H231.129C231.434 89.1497 231.678 89.1051 231.864 89.0161C232.051 88.927 232.187 88.8008 232.27 88.6375C232.356 88.4724 232.398 88.2757 232.398 88.0474C232.398 87.8192 232.356 87.6197 232.27 87.449C232.185 87.2782 232.049 87.1465 231.861 87.0537C231.674 86.9591 231.426 86.9117 231.118 86.9117H229.904V92H229.214ZM231.897 89.4392L233.3 92H232.499L231.118 89.4392H231.897ZM236.433 92V86.2994H237.123V91.3876H239.773V92H236.433ZM241.532 86.2994V92H240.842V86.2994H241.532ZM242.916 86.2994H243.74L245.677 91.0313H245.744L247.681 86.2994H248.505V92H247.86V87.6689H247.804L246.022 92H245.399L243.617 87.6689H243.562V92H242.916V86.2994ZM250.58 86.2994V92H249.889V86.2994H250.58ZM251.652 86.9117V86.2994H255.928V86.9117H254.135V92H253.445V86.9117H251.652ZM256.993 92V86.2994H260.433V86.9117H257.683V88.8379H260.255V89.4503H257.683V91.3876H260.478V92H256.993ZM263.437 92H261.678V86.2994H263.515C264.068 86.2994 264.541 86.4135 264.934 86.6417C265.328 86.8681 265.629 87.1938 265.839 87.6188C266.049 88.0418 266.153 88.5484 266.153 89.1386C266.153 89.7324 266.048 90.2436 265.836 90.6723C265.625 91.0991 265.317 91.4275 264.912 91.6576C264.507 91.8859 264.016 92 263.437 92ZM262.368 91.3876H263.392C263.864 91.3876 264.254 91.2967 264.564 91.1148C264.874 90.933 265.105 90.6741 265.257 90.3382C265.409 90.0024 265.485 89.6025 265.485 89.1386C265.485 88.6783 265.41 88.2822 265.26 87.95C265.11 87.616 264.885 87.3599 264.586 87.1817C264.288 87.0017 263.915 86.9117 263.47 86.9117H262.368V91.3876ZM216.345 101L214.786 95.2994H215.488L216.679 99.9423H216.735L217.948 95.2994H218.728L219.941 99.9423H219.997L221.188 95.2994H221.89L220.331 101H219.618L218.36 96.4573H218.316L217.058 101H216.345ZM222.54 101H221.816L223.909 95.2994H224.622L226.715 101H225.991L224.288 96.2012H224.243L222.54 101ZM222.807 98.7732H225.724V99.3856H222.807V98.7732ZM227.603 101V95.2994H229.529C229.974 95.2994 230.34 95.3755 230.626 95.5276C230.912 95.6779 231.123 95.8848 231.26 96.1483C231.398 96.4118 231.466 96.7115 231.466 97.0474C231.466 97.3833 231.398 97.6811 231.26 97.9409C231.123 98.2007 230.912 98.4048 230.629 98.5533C230.345 98.6999 229.982 98.7732 229.54 98.7732H227.981V98.1497H229.518C229.822 98.1497 230.067 98.1051 230.253 98.0161C230.44 97.927 230.576 97.8008 230.659 97.6375C230.745 97.4724 230.787 97.2757 230.787 97.0474C230.787 96.8192 230.745 96.6197 230.659 96.449C230.574 96.2782 230.437 96.1465 230.25 96.0537C230.063 95.9591 229.815 95.9117 229.507 95.9117H228.293V101H227.603ZM230.286 98.4392L231.689 101H230.887L229.507 98.4392H230.286ZM232.617 101V95.2994H234.543C234.988 95.2994 235.354 95.3755 235.64 95.5276C235.925 95.6779 236.137 95.8848 236.274 96.1483C236.412 96.4118 236.48 96.7115 236.48 97.0474C236.48 97.3833 236.412 97.6811 236.274 97.9409C236.137 98.2007 235.926 98.4048 235.642 98.5533C235.358 98.6999 234.996 98.7732 234.554 98.7732H232.995V98.1497H234.532C234.836 98.1497 235.081 98.1051 235.267 98.0161C235.454 97.927 235.589 97.8008 235.673 97.6375C235.758 97.4724 235.801 97.2757 235.801 97.0474C235.801 96.8192 235.758 96.6197 235.673 96.449C235.588 96.2782 235.451 96.1465 235.264 96.0537C235.076 95.9591 234.829 95.9117 234.521 95.9117H233.307V101H232.617ZM235.3 98.4392L236.703 101H235.901L234.521 98.4392H235.3ZM237.864 101H237.141L239.234 95.2994H239.946L242.04 101H241.316L239.612 96.2012H239.568L237.864 101ZM238.131 98.7732H241.049V99.3856H238.131V98.7732ZM247.448 95.2994V101H246.78L243.673 96.5241H243.618V101H242.927V95.2994H243.596L246.713 99.7864H246.769V95.2994H247.448ZM248.517 95.9117V95.2994H252.793V95.9117H251V101H250.31V95.9117H248.517ZM253.368 95.2994H254.159L255.74 97.9604H255.807L257.388 95.2994H258.178L256.119 98.6507V101H255.428V98.6507L253.368 95.2994Z" fill="#375F78"/>
<line x1="96.25" y1="25" x2="96.25" y2="103" stroke="#DEDEDE" stroke-width="0.5"/>
<line x1="193.25" y1="25" x2="193.25" y2="103" stroke="#DEDEDE" stroke-width="0.5"/>
</svg>
